<svg version="1.1"
      xmlns="http://www.w3.org/2000/svg"
      xmlns:xlink="http://www.w3.org/1999/xlink"  id="snapshot-30764" width="250" height="250" viewBox="0 0 250 250"><desc>This image was made on Patterninja.com</desc><defs>
<!-- image 67481 -->
<g id="transformed-67481" data-image="67481" transform="translate(176.58338483726732, -67.41661516273267) rotate(32, 67.4166151627327, 67.41661516273267)"><g><svg version="1.1" width="134.8332303254654px" height="134.83323032546534px" viewBox="0 0 134.8332303254654 134.83323032546534"><g id="original-67481"><svg xmlns="http://www.w3.org/2000/svg" version="1.1" viewBox="0 0 64 64" xmlns:xlink="http://www.w3.org/1999/xlink" preserveAspectRatio="xMidYMid meet">
  <path d="M56 32.734V24C56 10.746 45.254 0 32 0S8 10.746 8 24v8.734C3.348 34.387 0 38.781 0 44v8c0 6.629 5.371 12 12 12h8c2.211 0 4-1.789 4-4V36c0-2.211-1.789-4-4-4h-4v-8c0-8.836 7.164-16 16-16s16 7.164 16 16v8h-4c-2.211 0-4 1.789-4 4v24c0 2.211 1.789 4 4 4h8c6.629 0 12-5.371 12-12v-8c0-5.219-3.348-9.613-8-11.266z" fill="rgba(35, 31, 32, 1)" stroke="none"/>
</svg>
</g></svg></g></g>
<!-- /image 67481 -->

<!-- image 83597 -->
<g id="transformed-83597" data-image="83597" transform="translate(29.46242752739019, 48.462427527390204) rotate(28, 76.53757247260981, 76.5375724726098)"><g><svg version="1.1" width="153.07514494521962px" height="153.0751449452196px" viewBox="0 0 153.07514494521962 153.0751449452196"><g id="original-83597"><svg xmlns="http://www.w3.org/2000/svg" version="1.1" viewBox="0 0 64 64" xmlns:xlink="http://www.w3.org/1999/xlink" preserveAspectRatio="xMidYMid meet">
  <path d="M32 44c6.629 0 12-5.371 12-12V12c0-6.629-5.371-12-12-12S20 5.371 20 12v20c0 6.629 5.371 12 12 12z" fill="rgba(35, 31, 32, 1)" stroke="none"/>
  <path d="M52 28c-2.211 0-4 1.789-4 4 0 8.836-7.164 16-16 16s-16-7.164-16-16c0-2.211-1.789-4-4-4s-4 1.789-4 4c0 11.887 8.656 21.73 20 23.641V60c0 2.211 1.789 4 4 4s4-1.789 4-4v-4.359C47.344 53.73 56 43.887 56 32c0-2.211-1.789-4-4-4z" fill="rgba(35, 31, 32, 1)" stroke="none"/>
</svg>
</g></svg></g></g>
<!-- /image 83597 -->
</defs><rect x="0" y="0" width="250" height="250" fill="rgba(234, 234, 234, 1)"></rect><use xlink:href="#transformed-67481" transform="translate(-250, -250)"></use><use xlink:href="#transformed-67481" transform="translate(0, -250)"></use><use xlink:href="#transformed-67481" transform="translate(250, -250)"></use><use xlink:href="#transformed-67481" transform="translate(-250, 0)"></use><use xlink:href="#transformed-67481" transform="translate(0, 0)"></use><use xlink:href="#transformed-67481" transform="translate(250, 0)"></use><use xlink:href="#transformed-67481" transform="translate(-250, 250)"></use><use xlink:href="#transformed-67481" transform="translate(0, 250)"></use><use xlink:href="#transformed-67481" transform="translate(250, 250)"></use><use xlink:href="#transformed-83597" transform="translate(-250, -250)"></use><use xlink:href="#transformed-83597" transform="translate(0, -250)"></use><use xlink:href="#transformed-83597" transform="translate(250, -250)"></use><use xlink:href="#transformed-83597" transform="translate(-250, 0)"></use><use xlink:href="#transformed-83597" transform="translate(0, 0)"></use><use xlink:href="#transformed-83597" transform="translate(250, 0)"></use><use xlink:href="#transformed-83597" transform="translate(-250, 250)"></use><use xlink:href="#transformed-83597" transform="translate(0, 250)"></use><use xlink:href="#transformed-83597" transform="translate(250, 250)"></use></svg>